<svg width="20" height="12" viewBox="0 0 20 12" fill="none" xmlns="http://www.w3.org/2000/svg">
<path d="M19.2092 6.75C19.6234 6.75 19.9592 6.41421 19.9592 6C19.9592 5.58579 19.6234 5.25 19.2092 5.25V6.75ZM0.469698 5.46967C0.176805 5.76256 0.176805 6.23744 0.469698 6.53033L5.24267 11.3033C5.53556 11.5962 6.01044 11.5962 6.30333 11.3033C6.59622 11.0104 6.59622 10.5355 6.30333 10.2426L2.06069 6L6.30333 1.75736C6.59622 1.46447 6.59622 0.989593 6.30333 0.696699C6.01044 0.403806 5.53556 0.403806 5.24267 0.696699L0.469698 5.46967ZM19.2092 5.25L1.00003 5.25V6.75L19.2092 6.75V5.25Z" fill="#F4F3F9"/>
</svg>
