<svg width="27" height="32" viewBox="0 0 27 32" fill="none" xmlns="http://www.w3.org/2000/svg">
<path d="M13.125 27.5624L20.3438 20.3436C21.7713 18.9159 22.7435 17.097 23.1373 15.1168C23.5311 13.1366 23.3288 11.0841 22.5562 9.21882C21.7835 7.35355 20.4751 5.75929 18.7963 4.63763C17.1176 3.51597 15.144 2.91729 13.125 2.91729C11.106 2.91729 9.1324 3.51597 7.45367 4.63763C5.77494 5.75929 4.46651 7.35355 3.69384 9.21882C2.92116 11.0841 2.71894 13.1366 3.11275 15.1168C3.50655 17.097 4.4787 18.9159 5.90626 20.3436L13.125 27.5624ZM13.125 31.6866L3.84417 22.4057C2.00862 20.5702 0.758605 18.2315 0.252187 15.6855C-0.254231 13.1395 0.00569748 10.5005 0.999102 8.10224C1.99251 5.70397 3.67477 3.65414 5.83316 2.21195C7.99155 0.769764 10.5291 0 13.125 0C15.7209 0 18.2585 0.769764 20.4168 2.21195C22.5752 3.65414 24.2575 5.70397 25.2509 8.10224C26.2443 10.5005 26.5042 13.1395 25.9978 15.6855C25.4914 18.2315 24.2414 20.5702 22.4058 22.4057L13.125 31.6866ZM13.125 16.0416C13.8986 16.0416 14.6404 15.7343 15.1874 15.1873C15.7344 14.6403 16.0417 13.8984 16.0417 13.1249C16.0417 12.3513 15.7344 11.6095 15.1874 11.0625C14.6404 10.5155 13.8986 10.2082 13.125 10.2082C12.3515 10.2082 11.6096 10.5155 11.0626 11.0625C10.5156 11.6095 10.2083 12.3513 10.2083 13.1249C10.2083 13.8984 10.5156 14.6403 11.0626 15.1873C11.6096 15.7343 12.3515 16.0416 13.125 16.0416ZM13.125 18.9582C11.5779 18.9582 10.0942 18.3436 9.00022 17.2497C7.90625 16.1557 7.29167 14.672 7.29167 13.1249C7.29167 11.5778 7.90625 10.0941 9.00022 9.0001C10.0942 7.90613 11.5779 7.29155 13.125 7.29155C14.6721 7.29155 16.1558 7.90613 17.2498 9.0001C18.3438 10.0941 18.9583 11.5778 18.9583 13.1249C18.9583 14.672 18.3438 16.1557 17.2498 17.2497C16.1558 18.3436 14.6721 18.9582 13.125 18.9582Z" fill="#FEFEFE"/>
</svg>
