<svg width="24" height="24" viewBox="0 0 24 24" fill="none" xmlns="http://www.w3.org/2000/svg">
<mask id="path-1-inside-1_1_3831" fill="white">
<path fill-rule="evenodd" clip-rule="evenodd" d="M12 2C10.3432 2 9.00003 3.34315 9.00003 5V5.67363C8.6579 5.83616 8.33105 6.02563 8.02221 6.23929L7.43776 5.90185C6.00288 5.07343 4.16811 5.56505 3.33968 6.99993C2.51125 8.43481 3.00288 10.2696 4.43776 11.098L5.02246 11.4356C5.0076 11.6218 5.00003 11.81 5.00003 12C5.00003 12.19 5.0076 12.3781 5.02245 12.5643L4.43776 12.9019C3.00288 13.7303 2.51125 15.5651 3.33968 16.9999C4.16811 18.4348 6.00288 18.9264 7.43776 18.098L8.0221 17.7606C8.33097 17.9743 8.65786 18.1638 9.00003 18.3264V19C9.00003 20.6569 10.3432 22 12 22C13.6569 22 15 20.6569 15 19V18.3264C15.3422 18.1638 15.669 17.9744 15.9779 17.7607L16.5621 18.098C17.997 18.9264 19.8318 18.4348 20.6602 16.9999C21.4886 15.5651 20.997 13.7303 19.5621 12.9019L18.9776 12.5644C18.9925 12.3782 19 12.19 19 12C19 11.81 18.9925 11.6217 18.9776 11.4355L19.5621 11.098C20.997 10.2696 21.4886 8.43481 20.6602 6.99993C19.8318 5.56505 17.997 5.07343 16.5621 5.90186L15.9778 6.23922C15.669 6.02559 15.3421 5.83614 15 5.67363V5C15 3.34315 13.6569 2 12 2Z"/>
</mask>
<path d="M9.00003 5.67363L9.64367 7.02852L10.5 6.62171V5.67363H9.00003ZM8.02221 6.23929L7.27221 7.53832L8.09464 8.01315L8.87562 7.47286L8.02221 6.23929ZM7.43776 5.90185L6.68776 7.20089H6.68776L7.43776 5.90185ZM3.33968 6.99993L2.04064 6.24993H2.04064L3.33968 6.99993ZM4.43776 11.098L5.18776 9.79897H5.18776L4.43776 11.098ZM5.02246 11.4356L6.51771 11.5549L6.59307 10.6103L5.77246 10.1365L5.02246 11.4356ZM5.02245 12.5643L5.77245 13.8633L6.59304 13.3896L6.5177 12.445L5.02245 12.5643ZM4.43776 12.9019L3.68776 11.6028L3.68776 11.6028L4.43776 12.9019ZM3.33968 16.9999L2.04064 17.7499H2.04064L3.33968 16.9999ZM7.43776 18.098L6.68776 16.799L6.68776 16.799L7.43776 18.098ZM8.0221 17.7606L8.87553 16.5271L8.09454 15.9868L7.2721 16.4616L8.0221 17.7606ZM9.00003 18.3264H10.5V17.3783L9.64367 16.9715L9.00003 18.3264ZM15 18.3264L14.3564 16.9715L13.5 17.3783V18.3264H15ZM15.9779 17.7607L16.7279 16.4617L15.9055 15.9868L15.1245 16.5271L15.9779 17.7607ZM16.5621 18.098L17.3121 16.799L16.5621 18.098ZM20.6602 16.9999L21.9592 17.7499L21.9592 17.7499L20.6602 16.9999ZM19.5621 12.9019L18.8121 14.2009H18.8121L19.5621 12.9019ZM18.9776 12.5644L17.4824 12.4451L17.407 13.3896L18.2276 13.8634L18.9776 12.5644ZM18.9776 11.4355L18.2276 10.1364L17.407 10.6102L17.4824 11.5548L18.9776 11.4355ZM19.5621 11.098L18.8121 9.79897L18.8121 9.79897L19.5621 11.098ZM16.5621 5.90186L17.3121 7.20089L17.3121 7.20089L16.5621 5.90186ZM15.9778 6.23922L15.1244 7.47281L15.9054 8.01308L16.7278 7.53826L15.9778 6.23922ZM15 5.67363H13.5V6.62171L14.3564 7.02852L15 5.67363ZM10.5 5C10.5 4.17157 11.1716 3.5 12 3.5V0.5C9.51475 0.5 7.50003 2.51472 7.50003 5H10.5ZM10.5 5.67363V5H7.50003V5.67363H10.5ZM8.87562 7.47286C9.11844 7.30486 9.37519 7.15606 9.64367 7.02852L8.3564 4.31874C7.94061 4.51626 7.54365 4.74639 7.1688 5.00572L8.87562 7.47286ZM6.68776 7.20089L7.27221 7.53832L8.77221 4.94025L8.18776 4.60282L6.68776 7.20089ZM4.63872 7.74993C5.05293 7.03249 5.97032 6.78668 6.68776 7.20089L8.18776 4.60282C6.03544 3.36018 3.28328 4.09761 2.04064 6.24993L4.63872 7.74993ZM5.18776 9.79897C4.47032 9.38475 4.22451 8.46737 4.63872 7.74993L2.04064 6.24993C0.798003 8.40225 1.53544 11.1544 3.68776 12.397L5.18776 9.79897ZM5.77246 10.1365L5.18776 9.79897L3.68776 12.397L4.27246 12.7346L5.77246 10.1365ZM6.50003 12C6.50003 11.8499 6.50602 11.7014 6.51771 11.5549L3.52721 11.3163C3.50919 11.5421 3.50003 11.7701 3.50003 12H6.50003ZM6.5177 12.445C6.50601 12.2985 6.50003 12.1501 6.50003 12H3.50003C3.50003 12.2298 3.50919 12.4578 3.5272 12.6836L6.5177 12.445ZM5.18776 14.2009L5.77245 13.8633L4.27245 11.2652L3.68776 11.6028L5.18776 14.2009ZM4.63872 16.2499C4.22451 15.5325 4.47032 14.6151 5.18776 14.2009L3.68776 11.6028C1.53544 12.8455 0.798002 15.5976 2.04064 17.7499L4.63872 16.2499ZM6.68776 16.799C5.97032 17.2132 5.05293 16.9674 4.63872 16.2499L2.04064 17.7499C3.28328 19.9022 6.03544 20.6397 8.18776 19.397L6.68776 16.799ZM7.2721 16.4616L6.68776 16.799L8.18776 19.397L8.7721 19.0597L7.2721 16.4616ZM9.64367 16.9715C9.37516 16.8439 9.11838 16.6951 8.87553 16.5271L7.16867 18.9942C7.54356 19.2536 7.94056 19.4837 8.3564 19.6813L9.64367 16.9715ZM10.5 19V18.3264H7.50003V19H10.5ZM12 20.5C11.1716 20.5 10.5 19.8284 10.5 19H7.50003C7.50003 21.4853 9.51475 23.5 12 23.5V20.5ZM13.5 19C13.5 19.8284 12.8285 20.5 12 20.5V23.5C14.4853 23.5 16.5 21.4853 16.5 19H13.5ZM13.5 18.3264V19H16.5V18.3264H13.5ZM15.1245 16.5271C14.8816 16.6951 14.6249 16.8439 14.3564 16.9715L15.6437 19.6813C16.0595 19.4837 16.4564 19.2536 16.8313 18.9943L15.1245 16.5271ZM17.3121 16.799L16.7279 16.4617L15.2279 19.0597L15.8121 19.397L17.3121 16.799ZM19.3612 16.2499C18.9469 16.9674 18.0296 17.2132 17.3121 16.799L15.8121 19.397C17.9644 20.6397 20.7166 19.9022 21.9592 17.7499L19.3612 16.2499ZM18.8121 14.2009C19.5296 14.6151 19.7754 15.5325 19.3612 16.2499L21.9592 17.7499C23.2019 15.5976 22.4644 12.8455 20.3121 11.6028L18.8121 14.2009ZM18.2276 13.8634L18.8121 14.2009L20.3121 11.6028L19.7276 11.2654L18.2276 13.8634ZM17.5 12C17.5 12.1501 17.4941 12.2986 17.4824 12.4451L20.4729 12.6837C20.4909 12.4579 20.5 12.2298 20.5 12H17.5ZM17.4824 11.5548C17.4941 11.7014 17.5 11.8498 17.5 12H20.5C20.5 11.7701 20.4909 11.542 20.4728 11.3162L17.4824 11.5548ZM18.8121 9.79897L18.2276 10.1364L19.7276 12.7345L20.3121 12.397L18.8121 9.79897ZM19.3612 7.74993C19.7754 8.46737 19.5296 9.38476 18.8121 9.79897L20.3121 12.397C22.4644 11.1544 23.2019 8.40225 21.9592 6.24993L19.3612 7.74993ZM17.3121 7.20089C18.0296 6.78668 18.9469 7.03249 19.3612 7.74993L21.9592 6.24993C20.7166 4.09762 17.9644 3.36018 15.8121 4.60282L17.3121 7.20089ZM16.7278 7.53826L17.3121 7.20089L15.8121 4.60282L15.2278 4.94019L16.7278 7.53826ZM14.3564 7.02852C14.6248 7.15605 14.8816 7.30484 15.1244 7.47281L16.8312 5.00564C16.4563 4.74634 16.0594 4.51624 15.6437 4.31874L14.3564 7.02852ZM13.5 5V5.67363H16.5V5H13.5ZM12 3.5C12.8285 3.5 13.5 4.17157 13.5 5H16.5C16.5 2.51472 14.4853 0.5 12 0.5V3.5Z" fill="white" mask="url(#path-1-inside-1_1_3831)"/>
<circle cx="12" cy="12" r="2.25" stroke="white" stroke-width="1.5"/>
</svg>
