<svg width="25" height="24" viewBox="0 0 25 24" fill="none" xmlns="http://www.w3.org/2000/svg">
<path fill-rule="evenodd" clip-rule="evenodd" d="M6.15119 15.1698C5.58744 15.316 5.30556 15.3891 5.21562 15.636C5.12568 15.8829 5.28081 16.1009 5.59108 16.5371C5.91677 16.9948 6.2924 17.4207 6.71325 17.8067C7.87285 18.8704 9.3261 19.586 10.8972 19.8671C12.4683 20.1482 14.0898 19.9827 15.5657 19.3905C17.0417 18.7984 18.3086 17.8051 19.2134 16.5308C20.1182 15.2564 20.622 13.7557 20.6638 12.21C20.7057 10.6644 20.2839 9.14014 19.4493 7.82167C18.6148 6.5032 17.4033 5.44702 15.9615 4.7809C15.016 4.34411 13.9981 4.08731 12.9627 4.01895C12.4336 3.98402 12.1691 3.96655 12.0061 4.1668C11.843 4.36704 11.9196 4.64352 12.0727 5.19648L13.7642 11.3057L13.7669 11.3153C13.7799 11.361 13.8233 11.5138 13.844 11.6656C13.8725 11.8741 13.8924 12.287 13.6438 12.7178C13.3952 13.1485 13.0276 13.3378 12.8328 13.4175C12.6911 13.4754 12.5371 13.5143 12.491 13.5259L12.4813 13.5284L6.15119 15.1698Z" fill="#2A4157" fill-opacity="0.24"/>
<path d="M9.98805 3.28881C9.86207 2.8338 9.79908 2.6063 9.60505 2.50602C9.41102 2.40575 9.20272 2.481 8.78612 2.6315C7.82697 2.978 6.92461 3.46117 6.10948 4.06647C5.0329 4.8659 4.12958 5.86272 3.45108 7C2.77259 8.13728 2.33221 9.39275 2.15508 10.6947C2.02221 11.6715 2.03944 12.66 2.20462 13.6285C2.27877 14.0633 2.31585 14.2807 2.50028 14.4C2.68471 14.5192 2.91348 14.4599 3.37102 14.3413L11.416 12.2552C11.8792 12.135 12.1108 12.075 12.2156 11.8935C12.3203 11.7121 12.2564 11.4815 12.1288 11.0203L9.98805 3.28881Z" fill="#222222"/>
</svg>
